<svg xmlns="http://www.w3.org/2000/svg" xmlns:xlink="http://www.w3.org/1999/xlink" version="1.1" x="0px" y="0px" viewBox="0 0 90 112.5" style="enable-background:new 0 0 90 90;" xml:space="preserve"><style type="text/css">
	.st0{display:none;}
	.st1{display:inline;}
	.st2{fill:none;stroke:#000000;stroke-width:2.8346;stroke-linecap:round;stroke-linejoin:round;stroke-miterlimit:10;}
	.st3{fill:none;stroke:#000000;stroke-width:1.4173;stroke-linecap:round;stroke-linejoin:round;stroke-miterlimit:10;}
	.st4{fill:none;stroke:#000000;stroke-width:1.3941;stroke-linecap:round;stroke-linejoin:round;stroke-miterlimit:10;}
	.st5{display:inline;fill:none;}
	.st6{display:inline;stroke:#000000;stroke-width:0.2835;stroke-miterlimit:10;}
	.st7{font-family:'Raleway-Thin';}
	.st8{font-size:11.642px;}
	.st9{stroke:#000000;stroke-width:0.2835;stroke-miterlimit:10;}
</style><g class="st0"><g class="st1"><polyline class="st2" points="48.1,70.5 61.7,62.6 68.6,58.7 72,56.7 72.8,56.2 73.2,55.9 73.5,55.6 73.8,55.3 73.9,55 74,54.6     73.9,54.3   "/><polyline class="st2" points="16,54.2 16,54.7 16.1,55.1 16.3,55.5 16.7,55.8 17.1,56.2 17.6,56.5 18.6,57 22.6,59.4 30.7,64     38.7,68.7 40.7,69.8 41.7,70.4 42.2,70.7 42.8,70.9 43.5,71.1 44.2,71.2 44.9,71.3 45.6,71.2 46.3,71.1 46.9,71 47.5,70.8     48.1,70.5   "/><polyline class="st2" points="70.5,39.1 70.8,38.7 71,38.3 71.1,37.9 71.1,37.6 71,37.2 70.7,36.8 70.4,36.5 69.9,36.2 66,33.9     58.2,29.4 50.4,24.9 48.4,23.7 47.9,23.5 47.4,23.2 46.8,23 46.2,22.8 45.5,22.8 44.8,22.7 44.1,22.8 43.5,22.9 42.9,23.1     42.3,23.4 41.4,24   "/><polyline class="st2" points="20.7,35.9 20.2,36.2 19.7,36.5 19.4,36.8 19.1,37.2 19,37.6 19,38 19.1,38.3 19.3,38.7 19.6,39.1     20.1,39.4 21,39.9 22.9,41 30.6,45.4 38.2,49.8 42,52.1 42.5,52.3 43,52.6 43.7,52.7 44.3,52.8 45,52.9 45.6,52.9 46.3,52.8     46.9,52.6   "/><line class="st2" x1="16" y1="54.2" x2="19" y2="37.6"/><line class="st2" x1="71.1" y1="37.6" x2="73.9" y2="54.3"/><polyline class="st2" points="46.9,52.6 49.5,51.8 52.1,50.9 54.7,49.8 57.1,48.6 59.5,47.3 61.9,45.9 64.2,44.3 66.4,42.7     68.5,40.9 70.5,39.1   "/><polyline class="st2" points="20.7,35.9 23.2,35 25.7,34.1 28.1,32.9 30.5,31.7 32.8,30.4 35.1,28.9 37.2,27.4 39.3,25.7 41.4,24       "/></g></g><g><g><polyline class="st3" points="48.1,70.5 61.7,62.6 68.6,58.7 72,56.7 72.8,56.2 73.2,55.9 73.5,55.6 73.8,55.3 73.9,55 74,54.6     73.9,54.3   "/><polyline class="st3" points="16,54.2 16,54.7 16.1,55.1 16.3,55.5 16.7,55.8 17.1,56.2 17.6,56.5 18.6,57 22.6,59.4 30.7,64     38.7,68.7 40.7,69.8 41.7,70.4 42.2,70.7 42.8,70.9 43.5,71.1 44.2,71.2 44.9,71.3 45.6,71.2 46.3,71.1 46.9,71 47.5,70.8     48.1,70.5   "/><polyline class="st3" points="70.5,39.1 70.8,38.7 71,38.3 71.1,37.9 71.1,37.6 71,37.2 70.7,36.8 70.4,36.5 69.9,36.2 66,33.9     58.2,29.4 50.4,24.9 48.4,23.7 47.9,23.5 47.4,23.2 46.8,23 46.2,22.8 45.5,22.8 44.8,22.7 44.1,22.8 43.5,22.9 42.9,23.1     42.3,23.4 41.4,24   "/><polyline class="st3" points="20.7,35.9 20.2,36.2 19.7,36.5 19.4,36.8 19.1,37.2 19,37.6 19,38 19.1,38.3 19.3,38.7 19.6,39.1     20.1,39.4 21,39.9 22.9,41 30.6,45.4 38.2,49.8 42,52.1 42.5,52.3 43,52.6 43.7,52.7 44.3,52.8 45,52.9 45.6,52.9 46.3,52.8     46.9,52.6   "/><line class="st3" x1="16" y1="54.2" x2="19" y2="37.6"/><line class="st3" x1="71.1" y1="37.6" x2="73.9" y2="54.3"/><polyline class="st3" points="46.9,52.6 49.5,51.8 52.1,50.9 54.7,49.8 57.1,48.6 59.5,47.3 61.9,45.9 64.2,44.3 66.4,42.7     68.5,40.9 70.5,39.1   "/><polyline class="st3" points="20.7,35.9 23.2,35 25.7,34.1 28.1,32.9 30.5,31.7 32.8,30.4 35.1,28.9 37.2,27.4 39.3,25.7 41.4,24       "/></g></g><g><g><polyline class="st4" points="48.2,71.3 62.3,63.2 69.4,59.1 73,57 73.8,56.5 74.2,56.2 74.5,55.9 74.8,55.6 74.9,55.2 75,54.9     75,54.5   "/><polyline class="st4" points="15,54.5 15,54.9 15.1,55.4 15.3,55.8 15.7,56.1 16.1,56.5 16.6,56.8 17.6,57.4 21.8,59.8 30.2,64.6     38.5,69.4 40.6,70.6 41.6,71.2 42.1,71.5 42.7,71.8 43.4,71.9 44.1,72.1 44.8,72.1 45.6,72.1 46.3,72 47,71.8 47.6,71.6     48.2,71.3   "/><polyline class="st4" points="72.1,37.3 72,37.2 71.9,36.8 71.6,36.4 71.3,36.1 70.8,35.8 66.7,33.4 58.6,28.8 50.5,24.1     48.5,22.9 48,22.6 47.5,22.3 46.9,22.1 46.2,22 45.5,21.9 44.8,21.9 44.1,22 43.4,22.1 42.8,22.3 42.2,22.5 41.2,23.1   "/><line class="st4" x1="72.1" y1="37.4" x2="72.1" y2="37.3"/><polyline class="st4" points="19.8,35.5 19.3,35.8 18.8,36.1 18.5,36.5 18.2,36.8 18.1,37.2 18.1,37.4   "/><line class="st4" x1="15" y1="54.5" x2="18.1" y2="37.4"/><line class="st4" x1="72.1" y1="37.3" x2="75" y2="54.5"/><line class="st4" x1="72.1" y1="37.3" x2="72.1" y2="37.3"/><polyline class="st4" points="19.8,35.5 22.4,34.6 25,33.6 27.5,32.4 30,31.2 32.4,29.8 34.7,28.3 37,26.7 39.1,25 41.2,23.1       "/></g></g><g class="st0"><polygon class="st5" points="45.5,38.5 35.1,43.8 25.6,38 35.9,32.8  "/><text transform="matrix(1.1199 -0.5663 0.857 0.5153 32.8454 42.3439)" class="st6 st7 st8">Z</text></g><g class="st0"><polygon class="st5" points="44.8,38.8 34.5,44 25,38.3 35.3,33  "/><text transform="matrix(1.1199 -0.5663 0.857 0.5153 32.2204 42.5939)" class="st6 st7 st8">Y</text></g><g class="st0"><polygon class="st5" points="44.8,38.8 34.5,44 25,38.3 35.3,33  "/><text transform="matrix(1.1199 -0.5663 0.857 0.5153 32.2204 42.5939)" class="st6 st7 st8">X</text></g><g class="st0"><polygon class="st5" points="60.7,23.5 36.5,45.6 21.8,36.3 45.9,14.3  "/><text transform="matrix(1.1199 -0.5663 0.857 0.5153 32.0574 42.5571)" class="st6 st7 st8">W</text></g><g class="st0"><polygon class="st5" points="44.8,38.8 34.5,44 25,38.3 35.3,33  "/><text transform="matrix(1.1199 -0.5663 0.857 0.5153 32.2204 42.5939)" class="st6 st7 st8">V</text></g><g class="st0"><polygon class="st5" points="44.8,38.8 34.5,44 25,38.3 35.3,33  "/><text transform="matrix(1.1199 -0.5663 0.857 0.5153 32.2204 42.5939)" class="st6 st7 st8">U</text></g><g class="st0"><polygon class="st5" points="45.6,38.5 35.3,43.7 25.7,38 36,32.8  "/><text transform="matrix(1.1199 -0.5663 0.857 0.5153 32.9495 42.3231)" class="st6 st7 st8">T</text></g><g class="st0"><polygon class="st5" points="44.8,38.8 34.5,44 25,38.3 35.3,33  "/><text transform="matrix(1.1199 -0.5663 0.857 0.5153 32.2204 42.5939)" class="st6 st7 st8">S</text></g><g class="st0"><polygon class="st5" points="44.8,38.8 34.5,44 25,38.3 35.3,33  "/><text transform="matrix(1.1199 -0.5663 0.857 0.5153 32.2204 42.5939)" class="st6 st7 st8">R</text></g><g class="st0"><polygon class="st5" points="44.8,38.8 34.5,44 25,38.3 35.3,33  "/><text transform="matrix(1.1199 -0.5663 0.857 0.5153 32.2204 42.5939)" class="st6 st7 st8">Q</text></g><g class="st0"><polygon class="st5" points="44.8,38.8 34.5,44 25,38.3 35.3,33  "/><text transform="matrix(1.1199 -0.5663 0.857 0.5153 32.2204 42.5939)" class="st6 st7 st8">P</text></g><g class="st0"><polygon class="st5" points="44.8,38.8 34.5,44 25,38.3 35.3,33  "/><text transform="matrix(1.1199 -0.5663 0.857 0.5153 32.2204 42.5939)" class="st6 st7 st8">O</text></g><g class="st0"><polygon class="st5" points="46.1,39.5 35.7,44.8 26.2,39 36.5,33.8  "/><text transform="matrix(1.1199 -0.5663 0.857 0.5153 33.4287 43.3377)" class="st6 st7 st8">Ñ</text></g><g class="st0"><polygon class="st5" points="44.8,38.8 34.5,44 25,38.3 35.3,33  "/><text transform="matrix(1.1199 -0.5663 0.857 0.5153 32.2204 42.5939)" class="st6 st7 st8">N</text></g><g class="st0"><polygon class="st5" points="46.2,38.2 35.2,44.5 25.7,38.7 36.6,32.4  "/><text transform="matrix(1.1199 -0.5663 0.857 0.5153 32.241 42.6463)" class="st6 st7 st8">M</text></g><g class="st0"><polygon class="st5" points="45,38.9 34.7,44.2 25.1,38.4 35.4,33.2  "/><text transform="matrix(1.1199 -0.5663 0.857 0.5153 32.3766 42.7397)" class="st6 st7 st8">L</text></g><g class="st0"><polygon class="st5" points="45,38.9 34.7,44.2 25.1,38.4 35.4,33.2  "/><text transform="matrix(1.1199 -0.5663 0.857 0.5153 32.3766 42.7397)" class="st6 st7 st8">K</text></g><g class="st0"><polygon class="st5" points="46.8,38 36.5,43.2 26.9,37.4 37.2,32.2  "/><text transform="matrix(1.1199 -0.5663 0.857 0.5153 34.1846 41.7707)" class="st6 st7 st8">J</text></g><g class="st0"><polygon class="st5" points="48.3,37.4 37.9,42.6 28.4,36.9 38.7,31.6  "/><text transform="matrix(1.1199 -0.5663 0.857 0.5153 35.6279 41.1763)" class="st6 st7 st8">I</text></g><g class="st0"><polygon class="st5" points="45,38.9 34.7,44.2 25.1,38.4 35.4,33.2  "/><text transform="matrix(1.1199 -0.5663 0.857 0.5153 32.3766 42.7397)" class="st6 st7 st8">H</text></g><g class="st0"><polygon class="st5" points="45,38.9 34.7,44.2 25.1,38.4 35.4,33.2  "/><text transform="matrix(1.1199 -0.5663 0.857 0.5153 32.3766 42.7397)" class="st6 st7 st8">G</text></g><g class="st0"><polygon class="st5" points="45,38.9 34.7,44.2 25.1,38.4 35.4,33.2  "/><text transform="matrix(1.1199 -0.5663 0.857 0.5153 32.3766 42.7397)" class="st6 st7 st8">F</text></g><g class="st0"><polygon class="st5" points="45,38.9 34.7,44.2 25.1,38.4 35.4,33.2  "/><text transform="matrix(1.1199 -0.5663 0.857 0.5153 32.3766 42.7397)" class="st6 st7 st8">E</text></g><g class="st0"><polygon class="st5" points="45,38.9 34.7,44.2 25.1,38.4 35.4,33.2  "/><text transform="matrix(1.1199 -0.5663 0.857 0.5153 32.3766 42.7397)" class="st6 st7 st8">D</text></g><g class="st0"><polygon class="st5" points="45,38.9 34.7,44.2 25.1,38.4 35.4,33.2  "/><text transform="matrix(1.1199 -0.5663 0.857 0.5153 32.3766 42.7397)" class="st6 st7 st8">C</text></g><g class="st0"><polygon class="st5" points="45,38.7 34.7,43.9 25.1,38.1 35.4,32.9  "/><text transform="matrix(1.1199 -0.5663 0.857 0.5153 32.3766 42.4481)" class="st6 st7 st8">B</text></g><g class="st0"><polygon class="st5" points="45,38.7 34.7,43.9 25.1,38.1 35.4,32.9  "/><text transform="matrix(1.1199 -0.5663 0.857 0.5153 32.3766 42.4481)" class="st6 st7 st8">A</text></g><g class="st0"><g class="st1"><path class="st9" d="M33.2,34.6l-7,3.5L26,38l7.3-3.7l0.2,0.1L33.1,42l7-3.5l0.2,0.1L33,42.3l-0.2-0.1L33.2,34.6z"/></g></g><g class="st0"><g class="st1"><path class="st9" d="M25.7,38l7.7,0.7l-0.5-4.3l0.3-0.2l0.6,4.5l2.7,1.6l-0.3,0.1l-2.8-1.7l-8.1-0.7L25.7,38z"/></g></g><g class="st0"><g class="st1"><path class="st9" d="M26.3,37.8l7,0.3l0.1-3.9l0.3-0.2L33.6,38l7.1,0.3l-0.3,0.2l-6.8-0.2L33.4,42l-0.3,0.2l0.1-3.9l-7.3-0.3    L26.3,37.8z"/></g></g><g class="st0"><g class="st1"><path class="st9" d="M30.3,35.7l0.3-0.1l4.2,0.8L33.6,34l0.3-0.1l1.2,2.6l6.1,1.2l-2.9-6.1l0.3-0.1l3.1,6.3l-0.3,0.1l-6.1-1.2    l1.7,3.4l-0.3,0.1L25.5,38l0.3-0.1L36.5,40l-1.7-3.4L30.3,35.7z"/></g></g><g class="st0"><g class="st1"><path class="st9" d="M25.8,38l10.7,2.1l-2.9-6.1l0.3-0.1l3.1,6.3l-0.3,0.1l-11.1-2.2L25.8,38z"/></g></g><g class="st0"><g class="st1"><path class="st9" d="M37,36.4l-3.6-2.2l0.3-0.1l3.6,2.2c1.9,1.1,2.7,2.6-0.2,4.1c-2.9,1.5-5.6,0.8-7.4-0.2L26,37.9l0.3-0.1    l3.6,2.2c1.7,1,4.2,1.6,6.9,0.3C39.6,38.8,38.6,37.4,37,36.4z"/></g></g><g class="st0"><g class="st1"><path class="st9" d="M33.5,34.4l-3.5,1.8l6.9,4.1l-0.3,0.1l-6.9-4.1l-3.5,1.8L25.9,38l7.4-3.7L33.5,34.4z"/></g></g><g class="st0"><g class="st1"><path class="st9" d="M31.9,41.4c1.5,0,3.1-0.4,4.3-1c1.4-0.7,2.7-1.9,1.5-2.6c-1.4-0.8-3.5,0-4.8,0.7c-1.7,0.9-3.7,1.4-5.1,0.5    c-1.4-0.8-0.1-2,1.4-2.7c1.5-0.8,2.6-1,3.9-0.9l-0.2,0.2c-1.3-0.1-2.5,0.3-3.5,0.8c-1.4,0.7-2.5,1.7-1.3,2.5    c1.4,0.8,3.2,0.2,4.7-0.5c1.7-0.8,3.9-1.5,5.3-0.7c1.4,0.8-0.1,2.1-1.5,2.9c-1.5,0.8-3.2,1-4.5,1.1L31.9,41.4z"/></g></g><g class="st0"><g class="st1"><path class="st9" d="M33.3,42.1l-7.1-4.3l3.8-1.9c1.5-0.8,3.7-0.7,4.8,0c1.1,0.7,1.1,1.7-0.2,2.5l5.1,0.5L39.3,39l-5.1-0.5    l-3.4,1.7l2.8,1.7L33.3,42.1z M30.5,40.1l3.6-1.8c1.4-0.7,1.3-1.7,0.3-2.3c-1-0.6-3-0.6-4.3,0l-3.5,1.8L30.5,40.1z"/></g></g><g class="st0"><g class="st1"><path class="st9" d="M29.4,40.1c-1.9-1.1-1.7-3.1,0.7-4.3c2.6-1.3,6.1-1.1,7.9,0c1,0.6,1.4,1.4,1.2,2.3l1.8,0.1l-0.3,0.2l-1.5-0.1    c-0.2,0.7-0.9,1.3-1.9,1.9C34.7,41.3,31.2,41.2,29.4,40.1z M36.9,38.2l0.3-0.2l1.7,0.1c0.1-0.9-0.3-1.6-1.2-2.2    c-1.8-1.1-5.1-1.2-7.4,0C27.9,37.1,28,39,29.6,40c1.8,1.1,5.2,1.1,7.4,0c1-0.5,1.6-1.1,1.8-1.7L36.9,38.2z"/></g></g><g class="st0"><g class="st1"><path class="st9" d="M33.3,42.1l-7.1-4.3l3.8-1.9c1.5-0.8,3.7-0.7,4.8,0c1.1,0.7,1.1,1.8-0.4,2.6l-3.6,1.8l2.8,1.7L33.3,42.1z     M30.5,40.1l3.6-1.8c1.4-0.7,1.3-1.7,0.3-2.3c-1-0.6-3-0.6-4.3,0l-3.5,1.8L30.5,40.1z"/></g></g><g class="st0"><g class="st1"><path class="st9" d="M29.4,40.1c-1.9-1.1-1.7-3.1,0.7-4.3c2.6-1.3,6.1-1.1,7.9,0c1.9,1.1,1.7,3.1-0.7,4.3    C34.7,41.3,31.2,41.2,29.4,40.1z M37.1,40c2.4-1.2,2.3-3.1,0.7-4.1c-1.8-1.1-5.1-1.2-7.4,0C27.9,37.1,28,39,29.6,40    C31.5,41,34.7,41.2,37.1,40z"/></g></g><g class="st0"><g class="st1"><path class="st9" d="M28,38.7l6.7,4l-0.3,0.1l-7.1-4.3l0.2-0.1L41.4,39l-6.8-4.1l0.3-0.1L42,39l-0.3,0.2L28,38.7z M28.9,36.2    c-0.6,0.3,0,0.7,0,0.7L28.6,37l0,0c0,0-0.8-0.5,0.1-0.9c0.6-0.3,1.6-0.1,2.3-0.5c0.6-0.3,0.1-0.6,0.1-0.6l0.3-0.1    c0,0,0.7,0.5-0.2,0.9C30.3,36.2,29.3,36,28.9,36.2z"/></g></g><g class="st0"><g class="st1"><path class="st9" d="M26.8,37.9l6.7,4l-0.3,0.1l-7.1-4.3l0.2-0.1l13.9,0.5l-6.8-4.1l0.3-0.1l7.1,4.3l-0.3,0.2L26.8,37.9z"/></g></g><g class="st0"><g class="st1"><path class="st9" d="M41.9,37.7l-6.6-4l1.1,5.2l-0.2,0.1L26.9,38l6.6,4l-0.3,0.1l-7.1-4.3l0.2-0.1l9.7,1.1l-1.2-5.4l0.2-0.1    l7.1,4.3L41.9,37.7z"/></g></g><g class="st0"><g class="st1"><path class="st9" d="M33.4,42.2L26.3,38l0.3-0.1l6.9,4.1l5.8-2.9l0.2,0.1L33.4,42.2z"/></g></g><g><g><path class="st9" d="M33.4,42.2L26.3,38l0.3-0.1l4.6,2.8l1.9-6l0.4-0.2l-1.3,4.2l8,0.3L39.8,39l-7.7-0.3l-0.6,2.1l2.2,1.3    L33.4,42.2z"/></g></g><g class="st0"><g class="st1"><path class="st9" d="M33.8,41.4c0.8-0.1,1.5-0.3,2.3-0.7c2.2-1.1,1.2-2-0.9-3.3l-3.6-2.2l0.3-0.1l3.6,2.2c2.2,1.3,3.3,2.3,0.9,3.5    c-0.8,0.4-1.6,0.6-2.4,0.8L33.8,41.4z"/></g></g><g class="st0"><g class="st1"><path class="st9" d="M36.6,40.7l-7.1-4.3l0.3-0.1l7.1,4.3L36.6,40.7z"/></g></g><g class="st0"><g class="st1"><path class="st9" d="M33.2,34.5l7.1,4.3l-0.3,0.1l-3.5-2.1L30.1,40l3.5,2.1l-0.3,0.1L26.3,38l0.3-0.1l3.4,2l6.4-3.3l-3.4-2    L33.2,34.5z"/></g></g><g class="st0"><g class="st1"><path class="st9" d="M37.6,36.4l3.4,2l-0.3,0.1l-1.2-0.7c-0.1,0.9-0.8,1.8-2.1,2.4c-2.6,1.3-6.2,1.1-8,0c-1.8-1.1-1.8-3,0.6-4.3    c1.9-1,3.6-1.1,5.1-0.9L35,35.3c-1.7-0.2-3.3,0.1-4.7,0.8c-2.4,1.2-2.2,3-0.6,4c1.8,1.1,5.2,1.1,7.5,0c1.2-0.6,2.4-1.9,1.9-2.6    l-1.5-0.9l-2.2,1.1l-0.2-0.1L37.6,36.4z"/></g></g><g class="st0"><g class="st1"><path class="st9" d="M33.4,42.2L26.3,38l6-3l0.2,0.1L26.7,38l3.2,1.9l5-2.5l0.2,0.1l-5,2.5l3.5,2.1L33.4,42.2z"/></g></g><g class="st0"><g class="st1"><path class="st9" d="M39.2,39.1l0.2,0.1l-6.1,3.1L26.3,38l6-3l0.2,0.1L26.7,38l3.2,1.9l5-2.5l0.2,0.1l-5,2.5l3.3,2L39.2,39.1z"/></g></g><g class="st0"><g class="st1"><path class="st9" d="M33.4,42.2L26.3,38l3-1.5c2.9-1.5,5.9-1.2,7.9-0.1c2.1,1.3,1.9,3-0.8,4.3L33.4,42.2z M29.4,36.6L26.7,38    l6.7,4l2.7-1.4c2.7-1.4,2.6-2.9,0.7-4.1C34.8,35.4,32.1,35.3,29.4,36.6z"/></g></g><g class="st0"><g class="st1"><path class="st9" d="M30.1,36c1.9-1,3.6-1.1,5.1-0.9L35,35.3c-1.7-0.2-3.3,0.1-4.7,0.8c-2.4,1.2-2.2,3-0.6,4    c1.8,1.1,5.2,1.1,7.5,0c1.1-0.6,2.3-1.9,1.9-2.6l0.3-0.1c0.5,0.9-0.6,2.2-2,2.8c-2.6,1.3-6.2,1.1-8,0C27.6,39.2,27.6,37.3,30.1,36    z"/></g></g><g class="st0"><g class="st1"><path class="st9" d="M37.6,39.8L33.3,42l-7.1-4.3l4.1-2.1c1.3-0.7,3-0.5,3.9,0c0.7,0.4,0.8,1.1,0.3,1.7c1.3-0.4,2.7-0.3,3.5,0.2    C39,38.1,38.9,39.1,37.6,39.8z M26.7,37.7l3.2,1.9l3.8-1.9c1.1-0.6,1.1-1.5,0.3-1.9c-0.8-0.5-2.3-0.6-3.5,0L26.7,37.7z M34.3,37.7    l-4.1,2.1l3.3,2l4-2c1.1-0.6,1.2-1.5,0.4-2C37,37.1,35.4,37.1,34.3,37.7z"/></g></g><g class="st0"><g class="st1"><path class="st9" d="M32.7,42.3l-3-6.3l0.2-0.1L41,38.1l-0.3,0.1l-4-0.8l-4.8,2.4l1.1,2.3L32.7,42.3z M30.1,36.1l1.7,3.6l4.6-2.3    L30.1,36.1z"/></g></g><text x="0" y="105" fill="#000000" font-size="5px" font-weight="bold" font-family="'Helvetica Neue', Helvetica, Arial-Unicode, Arial, Sans-serif">Created by Pedro Martínez</text><text x="0" y="110" fill="#000000" font-size="5px" font-weight="bold" font-family="'Helvetica Neue', Helvetica, Arial-Unicode, Arial, Sans-serif">from the Noun Project</text></svg>